# xmcd
#
# Track frame offsets: 
#        150
#        18570
#        34780
#        47942
#        65550
#        81232
#        93990
#        112718
#        124984
#
# Disc length: 1938 seconds
#
# Revision: 0
# Processed by: cddbd v1.5.2PL0 Copyright (c) Steve Scherf et al.
# Submitted via: ExactAudioCopyFreeDBPlugin 1.0
#
DISCID=73079009
DTITLE=Mama's Blue Dress - Mama's Blue Dress
DYEAR=2012
DGENRE=Country
TTITLE0=Blue Nation
TTITLE1=If He Wants This Town
TTITLE2=All I Ever Did Was Love You
TTITLE3=Mama's Blue Dress
TTITLE4=All Through the Night
TTITLE5=What a Day
TTITLE6=God's Small Town
TTITLE7=Stone in the Water
TTITLE8=Blue Nation
EXTD=
EXTT0=
EXTT1=
EXTT2=
EXTT3=
EXTT4=
EXTT5=
EXTT6=
EXTT7=
EXTT8=
PLAYORDER=
